Coordinates
version=1
nRows=21
nColumns=33
inDegrees=yes

Units are S.I. units (second, meters, Newtons, ...)
Angles are in degrees.

endheader
time	ground_thorax_rot_x	ground_thorax_rot_y	ground_thorax_rot_z	ground_thorax_tx	ground_thorax_ty	ground_thorax_tz	clav_prot_r	clav_elev_r	scapula_abduction_r	scapula_elevation_r	scapula_upward_rot_r	scapula_winging_r	shoulder_elv_r	plane_of_elev_r	axial_rot_r	elbow_flexion_r	pro_sup_r	wrist_flex_r	wrist_dev_r	clav_prot_l	clav_elev_l	scapula_abduction_l	scapula_elevation_l	scapula_upward_rot_l	scapula_winging_l	shoulder_elv_l	plane_of_elev_l	axial_rot_l	elbow_flexion_l	pro_sup_l	wrist_flex_l	wrist_dev_l
      1.59000000	     -6.75529163	      1.24675382	     -2.03665985	     -0.10759617	      1.03365876	     -0.02748177	    -10.00814651	     -2.05658689	      9.69342433	     -6.31658993	     37.69138080	     -7.84685605	     47.07242014	      1.54271846	    -34.46722958	    123.79683519	     33.55243014	     13.02319645	     -8.16030653	     17.87178122	      2.05049446	    -39.00788717	     -4.32371915	      7.15252580	     18.09957236	     73.23753044	     62.98872367	     24.87578813	     94.42029325	     22.97274357	    -15.05055853	    -24.13151554
      1.60000000	     -5.31435828	     -1.07008030	     -2.63705186	     -0.10861401	      1.03332798	     -0.02691814	     -7.27281736	      0.14873722	     14.53631967	     -4.48722981	     38.21936560	     -9.47784698	     48.86562407	      1.10046084	    -35.12201990	    124.23715143	     34.94604009	     13.45393520	     -9.34383120	     15.32287854	      0.34131404	    -34.95221183	     -2.85571084	      7.70997168	     15.53887667	     76.16980086	     61.91354112	     28.07390096	     94.85918624	     22.97147510	    -15.52143051	    -24.58025493
      1.61000000	     -5.37552124	     -1.20165808	     -2.46555168	     -0.10938061	      1.03323344	     -0.02747486	     -7.32325324	      0.14730033	     14.51666869	     -4.50517227	     38.30471420	     -9.48193519	     48.93589840	      1.13012257	    -35.18133636	    124.34381638	     34.93801190	     13.46358509	     -9.36089743	     15.31109815	      0.33099825	    -34.97054200	     -2.82274631	      7.78168177	     15.55024604	     76.20497197	     61.98118303	     28.08109335	     94.91653655	     22.96699928	    -15.52644594	    -24.58856536
      1.62000000	     -5.43484001	     -1.32073837	     -2.28830070	     -0.11004842	      1.03304558	     -0.02788082	     -7.38514481	      0.13787274	     14.48806622	     -4.53194992	     38.40162761	     -9.48007747	     49.02097310	      1.15823161	    -35.26553034	    124.49703607	     34.93025785	     13.47917391	     -9.38845708	     15.29662612	      0.31779212	    -34.97737837	     -2.78690816	      7.84252903	     15.55588716	     76.22698849	     62.02783381	     28.10672734	     95.01049960	     22.95892234	    -15.53800435	    -24.60253784
      1.63000000	     -5.79267409	     -1.55547314	     -2.68491029	     -0.10943863	      1.03316428	     -0.02810448	     -7.24716401	     -0.14110969	     15.07377956	     -4.81979503	     38.76352634	     -9.48055201	     49.05757903	      0.35776998	    -36.15550511	    125.57769036	     36.32207615	     13.17593343	     -8.97145942	     14.61954734	      1.03878363	    -33.63537941	     -3.48308006	      7.63068891	     15.00423239	     77.92911285	     62.67060899	     29.75376127	     95.46416344	     22.85591054	    -15.68295073	    -24.67578804
      1.64000000	     -5.84673049	     -1.65319215	     -2.54412704	     -0.11018094	      1.03282190	     -0.02847047	     -7.29018791	     -0.13774260	     15.06242512	     -4.83155411	     38.84287319	     -9.48669709	     49.12342471	      0.39070334	    -36.20101851	    125.66662242	     36.31749542	     13.18519161	     -8.98938761	     14.61821910	      1.01815107	    -33.65320187	     -3.45323452	      7.66693854	     15.00950637	     77.95138077	     62.71186439	     29.75683288	     95.51967980	     22.85474383	    -15.68790719	    -24.68737801
      1.65000000	     -5.75516299	     -1.67697069	     -2.55871583	     -0.11040600	      1.03321333	     -0.02861286	     -7.36272233	     -0.18452101	     15.01055347	     -4.88706149	     38.92595058	     -9.46085635	     49.26115206	      0.33820032	    -36.38934771	    126.16034966	     36.35384227	     13.24313611	     -9.10543870	     14.61630828	      0.85902539	    -33.62175302	     -3.35034536	      7.58934790	     14.95998865	     78.03678488	     62.71543367	     29.80546176	     96.05608200	     22.85366238	    -15.74153281	    -24.81293934
      1.66000000	     -5.80426230	     -1.75666145	     -2.44813104	     -0.11113608	      1.03272960	     -0.02891633	     -7.40131974	     -0.17886918	     15.00104572	     -4.89621312	     38.99876773	     -9.46597915	     49.32430760	      0.36840140	    -36.42847812	    126.25269382	     36.35620271	     13.25524849	     -9.12275646	     14.61762564	      0.84412443	    -33.63381131	     -3.33101524	      7.60774005	     14.96041245	     78.05657477	     62.74461480	     29.80296984	     96.09590277	     22.85493364	    -15.74443422	    -24.82313137
      1.67000000	     -5.72159506	     -1.74533955	     -2.48836972	     -0.11126842	      1.03301801	     -0.02909762	     -7.45617736	     -0.20393154	     14.94057998	     -4.92514124	     39.03818116	     -9.44682058	     49.46323705	      0.26425195	    -36.61158654	    126.80263484	     36.48394293	     13.34347297	     -9.24607872	     14.62025978	      0.69373869	    -33.58032043	     -3.25449043	      7.47487261	     14.89984762	     78.15930032	     62.80895427	     29.81147908	     96.58081197	     22.87474226	    -15.78956080	    -24.95160049
      1.68000000	     -5.70547484	     -1.73554369	     -2.46059155	     -0.11160497	      1.03287587	     -0.02935402	     -7.47502332	     -0.18268300	     14.92607431	     -4.91279749	     39.06613362	     -9.45281295	     49.56760657	      0.15434002	    -36.76747372	    127.20154911	     36.69931972	     13.41728294	     -9.34494040	     14.63126778	      0.55169682	    -33.53332516	     -3.18821616	      7.33245439	     14.84083354	     78.27278782	     62.91040062	     29.81171257	     96.81073678	     22.91960850	    -15.81268183	    -24.99420487
      1.69000000	     -5.73866696	     -1.81617886	     -2.39470401	     -0.11224791	      1.03218957	     -0.02967572	     -7.50535541	     -0.17487556	     14.91961185	     -4.91755128	     39.12621532	     -9.45745537	     49.61913181	      0.17980624	    -36.79586931	    127.28343344	     36.71057065	     13.42960455	     -9.35869562	     14.64001080	      0.54379987	    -33.54070457	     -3.18601215	      7.31868664	     14.83910049	     78.28737089	     62.92799686	     29.79961161	     96.82637269	     22.92406282	    -15.81304881	    -24.99999983
      1.70000000	     -5.72699889	     -1.68800168	     -2.22462056	     -0.11242806	      1.03254778	     -0.03013871	     -7.29761374	      0.06921941	     15.10138694	     -4.67993614	     38.94971242	     -9.57318542	     49.68849323	     -0.41076179	    -37.23394921	    128.14724971	     38.19324873	     13.64615032	     -9.59442153	     14.69607374	      0.06780678	    -33.29917148	     -3.04815655	      6.60123522	     14.60368291	     78.72894263	     63.33257166	     29.82474288	     96.84810519	     23.21337898	    -15.89932314	    -24.99999983
      1.71000000	     -5.66526649	     -1.79293020	     -2.26878425	     -0.11280763	      1.03215963	     -0.03021621	     -7.30320425	      0.07775018	     15.14702740	     -4.68507886	     39.01982540	     -9.58676600	     49.74468748	     -0.38330321	    -37.21999745	    128.41384115	     38.39254610	     13.66323149	     -9.61096983	     14.68737931	      0.07584189	    -33.26305217	     -3.06833141	      6.56346711	     14.58187424	     78.82675635	     63.26453617	     29.87904559	     97.26035506	     23.21913423	    -15.97422012	    -24.99999983
      1.72000000	     -5.63263510	     -1.84898095	     -2.29596491	     -0.11320395	      1.03178167	     -0.03036562	     -7.28954123	      0.09162035	     15.19441908	     -4.67849589	     39.05082251	     -9.60197687	     49.79967568	     -0.39486255	    -37.21982501	    128.73007803	     38.63665056	     13.69959645	     -9.62836607	     14.70264319	      0.04936367	    -33.23250295	     -3.08607897	      6.45187146	     14.55963820	     78.91506481	     63.29138610	     29.90031487	     97.50780894	     23.23916440	    -16.03036445	    -24.99999983
      1.73000000	     -5.61332469	     -1.87980442	     -2.30994385	     -0.11354309	      1.03140251	     -0.03053964	     -7.26650949	      0.11553503	     15.22411428	     -4.65655667	     39.04286516	     -9.61597239	     49.85740118	     -0.48054847	    -37.25309934	    129.07329160	     38.97077668	     13.74418578	     -9.63936616	     14.73318225	     -0.00167780	    -33.20037363	     -3.10526700	      6.27732647	     14.52881298	     79.02780747	     63.36139341	     29.88736103	     97.73432580	     23.27000307	    -16.08969914	    -24.99999983
      1.74000000	     -5.62599017	     -1.94700539	     -2.30735063	     -0.11401519	      1.03061401	     -0.03078443	     -7.28315292	      0.12217894	     15.23105897	     -4.65947342	     39.08866114	     -9.62194823	     49.89557335	     -0.45016715	    -37.25796971	    129.16040276	     38.99606171	     13.75784068	     -9.64494477	     14.75063098	      0.00050211	    -33.20655907	     -3.12317479	      6.23141086	     14.53219457	     79.04774703	     63.37121166	     29.85742728	     97.73666998	     23.27687597	    -16.08951291	    -24.99999983
      1.75000000	     -5.57040545	     -1.93940450	     -2.39359693	     -0.11439051	      1.03027947	     -0.03088341	     -7.26157258	      0.10457559	     15.28259028	     -4.67540245	     39.10216850	     -9.62837085	     49.93894165	     -0.39960083	    -37.20839508	    129.52336050	     39.12245924	     13.82840002	     -9.66160597	     14.79604431	     -0.00705549	    -33.20611122	     -3.17250626	      6.07235491	     14.52746653	     79.13110258	     63.46694175	     29.75736295	     97.91881451	     23.29337497	    -16.10995916	    -24.99999983
      1.76000000	     -5.54797876	     -1.96883020	     -2.06132124	     -0.11511737	      1.02991098	     -0.03099032	     -6.81611236	      0.64562129	     16.04377237	     -4.22890351	     39.18290982	     -9.95993496	     49.69929389	     -1.40837828	    -37.57200367	    130.62614185	     43.79536529	     13.01130127	     -9.42044854	     15.14592874	     -0.24280538	    -33.40652457	     -3.26814354	      5.23328389	     14.56098658	     80.41348710	     63.36687600	     30.57100344	     98.03530689	     23.54562226	    -16.98576429	    -24.99999983
      1.77000000	     -5.52327133	     -2.02121161	     -2.15569453	     -0.11541042	      1.02939925	     -0.03119053	     -6.81756421	      0.63177467	     16.06919531	     -4.24770007	     39.21596936	     -9.96223380	     49.72064709	     -1.35754775	    -37.55076903	    130.84030861	     43.78419295	     13.02775627	     -9.46044681	     15.17758838	     -0.25472327	    -33.41543387	     -3.29058863	      5.13910812	     14.56225482	     80.47957173	     63.44369588	     30.50114261	     98.12956627	     23.55219060	    -16.98349599	    -24.99999983
      1.78000000	     -5.50712383	     -2.05059916	     -2.23576334	     -0.11553102	      1.02897125	     -0.03134812	     -6.82000821	      0.61793529	     16.06636345	     -4.25807646	     39.21071279	     -9.95573515	     49.74880244	     -1.35213042	    -37.49924730	    131.12342486	     43.78966400	     13.06280511	     -9.51190723	     15.21046009	     -0.28086810	    -33.41364667	     -3.31210039	      5.01739120	     14.55354345	     80.54659429	     63.53842921	     30.43052177	     98.28366393	     23.55837022	    -16.99100368	    -24.99999983
      1.79000000	     -5.51888174	     -2.04536592	     -2.24498095	     -0.11548168	      1.02874114	     -0.03152435	     -6.82492717	      0.60529189	     16.00165558	     -4.25711100	     39.14179652	     -9.93509955	     49.76142366	     -1.47247330	    -37.48454286	    131.47308077	     43.82805832	     13.09338995	     -9.64533259	     15.26227779	     -0.36573717	    -33.39066369	     -3.32751666	      4.77706822	     14.51467522	     80.62320721	     63.67422463	     30.35855797	     98.48355516	     23.57379931	    -17.01826003	    -24.99999983
